<?xml version="1.0" encoding="UTF-8" standalone="no"?>
<!DOCTYPE svg PUBLIC "-//W3C//DTD SVG 1.1//EN"
"http://www.w3.org/Graphics/SVG/1.1/DTD/svg11.dtd">


<!-- Page 1 -->
<svg x="0" y="0" width="481" height="301" viewBox="0 0 481 301" version="1.1" xmlns="http://www.w3.org/2000/svg" xmlns:xlink="http://www.w3.org/1999/xlink"
style="display: block;margin-left: auto;margin-right: auto;">
<defs>

<style type="text/css"><![CDATA[

.g0_1{
}

]]></style>

</defs>
<path d="M0,0
L0,301
L481,301
L481,0 Z " 
fill="#FFFFFF" stroke="none" />
<path d="M96.2,139.9c3.1,0,5.7,-.5,7.8,-1.6c2.2,-1.1,3.8,-2.6,4.9,-4.4c1.1,-1.8,1.6,-3.8,1.6,-5.9c0,-2.2,-.6,-4.4,-1.9,-6.3c-1.3,-2,-3.1,-3.6,-5.6,-4.8c-2.5,-1.1,-5.5,-1.6,-9,-1.4v24.4c.5,0,1.2,0,2.2,0m5.1,-28.2c2,-.9,3.5,-2.1,4.4,-3.5c1,-1.4,1.5,-2.8,1.5,-4.4c0,-1.6,-.5,-3.1,-1.6,-4.5c-1,-1.4,-2.5,-2.4,-4.5,-3.2c-2,-.8,-4.4,-1.2,-7.1,-1v18.4c2.9,-.2,5.3,-.8,7.3,-1.8m5.4,5.2c2,1.3,3.4,3,4.4,5c1,1.9,1.5,3.9,1.5,6.1c0,2.4,-.6,4.7,-1.9,6.9c-1.3,2.2,-3.2,3.9,-5.8,5.3c-2.5,1.3,-5.5,2,-9.1,2c-1.2,0,-2.4,-.1,-3.7,-.2V93.3c1.5,-.2,2.7,-.3,3.3,-.3c2.8,0,5.2,.6,7.3,1.6c2.1,1,3.8,2.4,4.9,4.1c1.1,1.7,1.6,3.5,1.6,5.4c0,2.2,-.8,4.2,-2.4,6c-1.6,1.9,-4,3.2,-7.1,4c2.8,.5,5.1,1.4,7,2.8Z" class="g0_1" />
<path d="M148.8,139.9c.2,.1,.3,.4,.3,.6c0,.3,-.1,.5,-.3,.7c-.1,.1,-.4,.2,-.7,.2H128.3c-.3,0,-.6,-.1,-.8,-.3c-.2,-.2,-.3,-.4,-.3,-.7V94.5c0,-.3,.1,-.5,.3,-.7c.2,-.2,.5,-.4,.8,-.4h18.5c.3,0,.5,.1,.7,.3c.2,.2,.3,.4,.3,.7c0,.3,-.1,.5,-.3,.7c-.2,.2,-.4,.3,-.7,.3H129.5c0,0,-.1,0,-.2,.1c-.1,.1,-.2,.2,-.2,.3v19.9h16.1c.3,0,.5,.1,.7,.3c.2,.2,.3,.4,.3,.7c0,.3,-.1,.5,-.3,.7c-.2,.2,-.4,.2,-.7,.2H129.1v21.6c0,.1,.1,.2,.2,.3c.1,0,.2,.1,.2,.1h18.6c.3,0,.6,.1,.7,.3Z" class="g0_1" />
<path d="M186.6,81.6c.3,.2,.5,.7,.4,1.1L160.2,142c-.1,.4,-.4,.7,-.9,.7c-.3,0,-.6,-.2,-.8,-.4c-.2,-.2,-.2,-.5,-.1,-.8L185.2,82.1c.2,-.5,.8,-.8,1.4,-.5Z" class="g0_1" />
<path d="M223.7,143.1c-4.4,0,-7.8,-1.6,-10.3,-4.7c-2.4,-3,-3.6,-7.3,-3.6,-12.7V93.9c0,-.3,.1,-.5,.3,-.7c.2,-.2,.4,-.3,.7,-.3c.2,0,.5,.1,.7,.3c.2,.2,.3,.5,.3,.7v31.8c0,4.7,1,8.5,3.1,11.2c2.1,2.8,5,4.1,8.8,4.1c4,0,7,-1.3,9,-3.9c2.1,-2.6,3.1,-6.4,3.1,-11.4V94.1c0,-.2,.1,-.5,.2,-.7c.2,-.1,.4,-.2,.7,-.2c.3,0,.5,.1,.7,.2c.2,.2,.3,.5,.3,.7v31.6c0,5.6,-1.2,9.9,-3.5,12.9c-2.3,3,-5.8,4.5,-10.5,4.5Z" class="g0_1" />
<path d="M267.2,94.9c0,.2,-.1,.5,-.3,.7c-.2,.2,-.4,.3,-.7,.3H257v45.7c0,.3,-.1,.5,-.3,.7c-.2,.2,-.5,.3,-.7,.3c-.6,0,-.9,-.3,-.9,-1V95.9h-8.9c-.2,0,-.5,-.1,-.6,-.3c-.2,-.2,-.3,-.5,-.3,-.7c0,-.6,.3,-.9,.9,-.9h20c.6,0,1,.3,1,.9Z" class="g0_1" />
<path d="M282.5,141.1c0,.3,-.1,.5,-.2,.6c-.2,.1,-.5,.2,-.7,.2c-.3,0,-.5,-.1,-.7,-.2c-.2,-.1,-.3,-.3,-.3,-.6v-47c0,-.3,.1,-.5,.3,-.7c.2,-.2,.4,-.3,.7,-.3c.2,0,.5,.1,.7,.3c.1,.2,.2,.4,.2,.7Z" class="g0_1" />
<path d="M315.3,93.8c.2,.2,.3,.4,.3,.7c0,.2,-.1,.5,-.3,.7c-.2,.2,-.4,.3,-.8,.3H301.1c-.1,0,-.2,0,-.3,.1c-.1,.1,-.1,.2,-.1,.3v20h12c.3,0,.6,.1,.7,.4c.2,.2,.3,.4,.3,.7c0,.6,-.3,.8,-1,.8h-12v23.9c0,.3,-.1,.5,-.3,.7c-.2,.2,-.4,.3,-.6,.3c-.3,0,-.5,-.1,-.7,-.3c-.2,-.2,-.3,-.4,-.3,-.7V94.5c0,-.2,.1,-.5,.3,-.7c.2,-.2,.5,-.3,.8,-.3h14.6c.4,0,.6,.1,.8,.3Z" class="g0_1" />
<path d="M342.6,143.1c-4.4,0,-7.9,-1.6,-10.3,-4.7c-2.4,-3,-3.6,-7.3,-3.6,-12.7V93.9c0,-.3,.1,-.5,.2,-.7c.2,-.2,.5,-.3,.7,-.3c.3,0,.5,.1,.7,.3c.2,.2,.3,.5,.3,.7v31.8c0,4.7,1.1,8.5,3.2,11.2c2.1,2.8,5,4.1,8.8,4.1c4,0,7,-1.3,9,-3.9c2,-2.6,3,-6.4,3,-11.4V94.1c0,-.2,.1,-.5,.3,-.7c.2,-.1,.4,-.2,.7,-.2c.3,0,.5,.1,.7,.2c.1,.2,.2,.5,.2,.7v31.6c0,5.6,-1.1,9.9,-3.4,12.9c-2.3,3,-5.8,4.5,-10.5,4.5Z" class="g0_1" />
<path d="M388.5,141.6H374.3c-1,0,-1.5,-.5,-1.5,-1.5V94.2c0,-.3,.1,-.6,.3,-.8c.2,-.1,.4,-.2,.7,-.2c.3,0,.5,.1,.7,.2c.2,.2,.2,.5,.2,.8v45.1c0,0,.1,.1,.2,.2c.1,.1,.2,.2,.3,.2h13.3c.3,0,.6,.1,.8,.2c.2,.2,.3,.4,.3,.7c0,.3,-.1,.5,-.3,.7c-.2,.2,-.5,.3,-.8,.3Z" class="g0_1" />
<path d="M132.7,180.2c4.1,-.6,7.6,-1.7,10.5,-3.3c2.8,-1.6,5,-3.5,6.4,-5.6c1.5,-2.2,2.2,-4.4,2.2,-6.7c0,-2.4,-.7,-4.6,-2.2,-6.6c-1.5,-2.1,-3.6,-3.7,-6.5,-4.9c-2.9,-1.3,-6.4,-1.9,-10.4,-1.9Zm5.2,1c-.9,.2,-2.7,.6,-5.2,1v16.4c0,.2,-.1,.4,-.3,.6c-.2,.2,-.4,.2,-.7,.2c-.2,0,-.4,0,-.6,-.2c-.2,-.2,-.3,-.4,-.3,-.6V149.7c1.2,-.2,2.5,-.3,3.9,-.3c3.7,0,7,.7,9.9,2.2c2.9,1.4,5.2,3.3,6.7,5.7c1.6,2.4,2.4,4.9,2.4,7.5c0,3.2,-1.1,6.2,-3.5,9c-2.3,2.8,-5.8,5.1,-10.5,6.7Z" class="g0_1" />
<path d="M180.8,199.8c-4.4,0,-7.8,-1.6,-10.3,-4.6c-2.4,-3.1,-3.6,-7.4,-3.6,-12.8V150.6c0,-.3,.1,-.5,.3,-.7c.2,-.2,.4,-.3,.7,-.3c.2,0,.5,.1,.7,.3c.2,.2,.3,.5,.3,.7v31.8c0,4.8,1,8.5,3.1,11.2c2.1,2.8,5,4.1,8.8,4.1c4,0,7,-1.3,9,-3.9c2.1,-2.6,3.1,-6.4,3.1,-11.4V150.8c0,-.2,.1,-.5,.2,-.6c.2,-.2,.4,-.3,.7,-.3c.3,0,.5,.1,.7,.3c.2,.1,.3,.4,.3,.6v31.6c0,5.7,-1.2,10,-3.5,12.9c-2.2,3,-5.7,4.5,-10.5,4.5Z" class="g0_1" />
<path d="M231.2,198.3c0,.3,-.1,.5,-.3,.7c-.2,.1,-.4,.2,-.7,.2c-.2,0,-.5,-.1,-.6,-.2c-.2,-.2,-.3,-.4,-.3,-.7V152c0,-.4,.1,-.7,.3,-1c.2,-.2,.5,-.4,.8,-.4c.5,0,1,.4,1.3,1c.3,.4,2.9,5,7.9,13.8l16.9,30.2c-.1,-14.1,-.2,-29.1,-.2,-45.1c0,-.3,.1,-.6,.3,-.7c.2,-.2,.4,-.3,.7,-.3c.3,0,.5,.1,.7,.3c.2,.1,.2,.4,.2,.7v46.7c0,.4,-.1,.8,-.3,1.1c-.2,.3,-.5,.4,-.7,.4c-.4,0,-.8,-.2,-1.1,-.7c-1.1,-1.6,-3,-4.9,-5.9,-9.9c-2.8,-5,-9.2,-16.5,-19.2,-34.4c.1,12,.2,26.9,.2,44.6Z" class="g0_1" />
<path d="M289.4,197.4c-1.9,1.4,-4,2,-6.2,2c-2.7,0,-5.2,-.9,-7.6,-2.6c-2.3,-1.8,-3.8,-4,-4.5,-6.6c-.1,-.4,-.1,-.6,.1,-.9c.2,-.2,.4,-.3,.7,-.3c.5,0,.8,.3,1,.7c.7,2.2,2.1,4,4,5.6c1.9,1.6,4,2.4,6.2,2.4c1.8,0,3.6,-.6,5.2,-1.8c1.2,-.9,2.1,-2.1,2.7,-3.7c.6,-1.5,1,-3.2,1,-5c0,-2.5,-.7,-4.6,-1.9,-6.3c-.8,-1,-1.9,-2.2,-3.2,-3.6c-1.3,-1.4,-2.7,-2.7,-4.1,-4.1c-2.8,-2.7,-5,-5,-6.5,-6.7c-.9,-1,-1.5,-2,-1.9,-3.3c-.4,-1.1,-.6,-2.4,-.6,-3.7c0,-1.6,.3,-3.1,1,-4.5c.6,-1.4,1.5,-2.5,2.7,-3.4c1.8,-1.4,3.7,-2.1,5.8,-2.1c1.9,0,3.7,.6,5.4,1.8c1.7,1.2,3,2.9,4,5.1c.2,.3,.1,.6,-.1,.9c-.2,.2,-.5,.3,-.8,.3c-.5,0,-.7,-.1,-.9,-.4c-.9,-1.9,-2,-3.4,-3.3,-4.3c-1.4,-1,-2.8,-1.5,-4.3,-1.5c-1.8,0,-3.3,.5,-4.7,1.6c-.9,.7,-1.6,1.6,-2.1,2.8c-.5,1.1,-.7,2.3,-.7,3.6c0,1.1,.2,2.2,.5,3.2c.3,1,.8,2,1.5,2.8c.8,.9,2.7,2.9,5.9,6c1.5,1.5,3,3,4.5,4.6c1.5,1.5,2.6,2.8,3.3,3.7c1.6,2.1,2.4,4.6,2.4,7.5c0,2,-.4,3.9,-1.2,5.8c-.8,1.8,-1.9,3.3,-3.3,4.4Z" class="g0_1" />
<path d="M202.5,141.7c-.3,0,-.7,-.2,-.9,-.5C186.2,108.2,175.3,83.3,175.1,83.1c-.3,-.5,-.2,-1.2,.3,-1.5c.5,-.3,1.2,-.2,1.5,.3c.1,.2,9.9,23.9,26.6,58.2c.2,.5,.1,1.2,-.4,1.5c-.2,.1,-.4,.1,-.6,.1Z" class="g0_1" />
<path d="M213.1,201c-.1,0,-.3,0,-.4,-.1c-.5,-.2,-.8,-.8,-.6,-1.3c3.9,-11.5,1.4,-29.7,-6.5,-48.2c-.2,-.5,.1,-1.2,.6,-1.4c.5,-.2,1.2,0,1.4,.6c4.2,9.8,7,19.7,8,28.7c.9,8.2,.4,15.4,-1.5,21c-.2,.4,-.6,.7,-1,.7Z" class="g0_1" />
<path d="M207.9,208c-.4,-.4,-1,-.4,-1.4,0c-4.1,3.6,-12.5,10.1,-21,10.2c-13,.1,-25.6,-7.6,-33,-20.3C147.8,189.8,143.8,185,131.9,181v2.1c10.8,3.7,14.4,8.2,18.9,15.9c7.7,13.1,20.8,21.2,34.3,21.2c.1,0,.3,0,.4,0c9.3,-.1,18.1,-6.8,22.3,-10.7c.5,-.4,.5,-1.1,.1,-1.5Z" class="g0_1" />

</svg>
